<svg xmlns="http://www.w3.org/2000/svg" viewBox="0 0 100 100" width="100" height="100">
<rect x="0" y="0" width="100" height="100" rx="22" fill="#1A1A1A"/>
<g transform="translate(-374.963,-40.025) scale(0.9032)" fill="#81C7BD"><path transform="matrix(1,0,0,-1,452.8838,86.85921)" d="M0 0C3.002 2.995 5.916 5.903 8.83 8.81 8.796 8.886 8.762 8.962 8.728 9.038 8.416 9.052 8.104 9.079 7.793 9.079 3.716 9.082-.362 9.1-4.439 9.065-5.217 9.058-5.489 9.246-5.471 10.067-5.417 12.452-5.454 14.839-5.45 17.225-5.449 17.519-5.417 17.812-5.396 18.151H21.822C21.842 17.814 21.875 17.495 21.875 17.176 21.88 14.759 21.908 12.342 21.852 9.927 21.841 9.448 21.619 8.859 21.289 8.521 18.653 5.817 15.977 3.154 13.288 .503 13.017 .235 12.585-.023 12.226-.026 8.299-.064 4.372-.05 .445-.048 .338-.048 .229-.025 0 0"/><path transform="matrix(1,0,0,-1,479.3486,121.60921)" d="M0 0H14.019V-9.041H-13.206V-5.492C-13.205-3.891-13.237-2.288-13.183-.688-13.169-.288-12.977 .201-12.698 .484-10.011 3.223-7.293 5.932-4.564 8.629-4.332 8.859-3.959 9.075-3.649 9.077 .368 9.104 4.387 9.092 8.405 9.086 8.453 9.086 8.502 9.038 8.628 8.97 5.695 6.044 2.782 3.138-.131 .232-.088 .155-.044 .078 0 0"/><path transform="matrix(1,0,0,-1,493.4805,98.801609)" d="M0 0H-9.081C-9.217 1.475-9.727 2.83-11.019 3.593-11.838 4.077-12.86 4.43-13.802 4.455-16.174 4.519-17.636 2.993-18.336-.008H-27.323C-27.264 4.457-25.539 8.084-22.049 10.724-17.396 14.242-12.297 14.685-7.161 11.928-2.541 9.447-.246 5.379 0 0"/><path transform="matrix(1,0,0,-1,447.4395,100.60631)" d="M0 0H9.037C9.594-2.965 11.243-4.525 13.744-4.496 16.155-4.467 17.843-2.807 18.267-.002H27.322C27.196-4.772 25.237-8.52 21.376-11.221 16.897-14.355 10.901-14.463 6.346-11.487 2.243-8.807 .151-4.973 0 0"/></g>
</svg>