<svg xmlns="http://www.w3.org/2000/svg" xmlns:xlink="http://www.w3.org/1999/xlink" xmlns:inkscape="http://www.inkscape.org/namespaces/inkscape" version="1.1" width="383" height="103" viewBox="115.67 61.33 383 103" fill="#1A1A1A">
<defs>
<clipPath id="clip_1">
<path transform="matrix(1,0,0,-1,0,221.057)" d="M0 221.057H595.276V0H0Z"/>
</clipPath>
<path id="font_2_49" d="M.57128909 0H.1352539V.75097659H.18603516V.05078125H.57128909V0Z"/>
<path id="font_2_58" d="M.6411133 .21679688 .60498049 .10888672 .53222659 .036132814 .4243164 0H.35205079L.24414063 .036132814 .17089844 .10888672 .1352539 .21679688V.75097659H.18603516V.21923828L.22021485 .1171875 .25195313 .08496094 .3540039 .05078125H.421875L.5239258 .08496094 .55615237 .1171875 .59033206 .21923828V.75097659H.6411133V.21679688Z"/>
<path id="font_2_46" d="M.18603516 0H.1352539V.75097659H.18603516V0Z"/>
<path id="font_2_44" d="M.6459961 .5600586H.5932617L.55615237 .6328125 .5229492 .6660156 .4560547 .7001953H.3203125L.2529297 .6660156 .22021485 .6328125 .1850586 .5649414 .1508789 .46191407V.2890625L.1850586 .18603516 .22021485 .11816406 .2529297 .08496094 .3203125 .05078125H.4560547L.5229492 .08503723 .55615237 .11830139 .59033206 .18534851V.28027345H.4501953V.3310547H.6411133V.18115235L.60498049 .107910159 .5332031 .036132814 .45996095 0H.31591798L.24316406 .036132814 .17089844 .107910159 .13623047 .18017578 .100097659 .28710938V.4638672L.13623047 .5708008 .16503906 .6430664 .24316406 .71484377 .31591798 .75097659H.45996095L.5332031 .71484377 .60498049 .6430664 .6459961 .5600586Z"/>
<path id="font_2_3" d=""/>
<path id="font_2_52" d="M.67626956 .28710938 .6401367 .18017578 .60498049 .107910159 .5332031 .036132814 .45996095 0H.31591798L.24316406 .036132814 .17089844 .107910159 .13623047 .18017578 .100097659 .28710938V.4638672L.13623047 .5708008 .17089844 .6430664 .24316406 .71484377 .31591798 .75097659H.45996095L.5332031 .71484377 .60498049 .6430664 .6401367 .5708008 .67626956 .4638672V.28710938M.625 .2890625V.46191407L.5913086 .56396487 .5229492 .6660156 .421875 .7001953H.3540039L.2529297 .6660156 .1850586 .56396487 .1508789 .46191407V.2890625L.1850586 .18701172 .2529297 .08496094 .3540039 .05078125H.43017579L.5229492 .08496094 .5913086 .18701172 .625 .2890625Z"/>
<path id="font_2_56" d="M.6171875 .6298828H.52490237L.48828126 .6660156 .42089845 .7001953H.2841797L.1821289 .6660156 .1508789 .6347656V.5698242L.18408203 .50390627 .25097657 .47021485 .42626954 .39990235 .49804688 .36523438 .5703125 .29296876 .60595706 .22021485V.10986328L.53222659 .036132814 .4243164 0H.28222657L.1743164 .036132814 .08935547 .12109375H.18115235L.21826172 .08496094 .28515626 .05078125H.421875L.5239258 .08496094 .5551758 .11621094V.21582031L.5209961 .28320313 .48828126 .31591798 .4189453 .35107423 .24511719 .42089845 .17333985 .4560547 .13623047 .49316407 .100097659 .56591799V.6411133L.1743164 .71484377 .28222657 .75097659H.4243164L.53222659 .71484377 .6171875 .6298828Z"/>
<path id="font_2_40" d="M.6459961 .19091797 .60498049 .107910159 .5332031 .036132814 .45996095 0H.31591798L.24316406 .036132814 .17089844 .107910159 .13623047 .18017578 .100097659 .28710938V.4638672L.13623047 .5708008 .17089844 .6430664 .24316406 .71484377 .31591798 .75097659H.45996095L.5332031 .71484377 .60498049 .6430664 .6459961 .5600586H.5932617L.55615237 .6328125 .5229492 .6660156 .4560547 .7001953H.3203125L.2529297 .6669922 .1850586 .56396487 .1508789 .46191407V.2890625L.1850586 .18701172 .2529297 .083984378 .3203125 .05078125H.4560547L.5229492 .08496094 .55615237 .11816406 .5932617 .19091797H.6459961Z"/>
</defs>
<g inkscape:groupmode="layer" inkscape:label="Livello 1">
<g clip-path="url(#clip_1)">
<path transform="matrix(1,0,0,-1,148.3125,68.853809)" d="M0 0C-2.637-13.562-13.079-12.563-22.932-13.047V-35.165H-26.459V-9.13C-23.119-9.13-20.017-9.152-16.915-9.125-8.851-9.057-6.171-7.208-3.329 .375-2.408 .271-1.426 .161 0 0" fill="#1A1A1A"/>
<path transform="matrix(1,0,0,-1,148.3125,68.853809)" stroke-width="2" stroke-linecap="butt" stroke-miterlimit="10" stroke-linejoin="miter" fill="none" stroke="#1A1A1A" d="M0 0C-2.637-13.562-13.079-12.563-22.932-13.047V-35.165H-26.459V-9.13C-23.119-9.13-20.017-9.152-16.915-9.125-8.851-9.057-6.171-7.208-3.329 .375-2.408 .271-1.426 .161 0 0Z"/>
<path transform="matrix(1,0,0,-1,170.9985,103.07361)" d="M0 0C-.869-.468-1.617-.872-2.574-1.388-4.015 1.533-5.619 4.265-6.725 7.185-7.64 9.603-9.085 10.227-11.479 10.095-14.781 9.913-18.101 10.049-21.561 10.049-21.628 11.107-21.676 11.854-21.749 12.99-17.399 12.99-13.215 12.911-9.036 13.013-5.229 13.106-2.296 14.87-.538 18.28 1.119 21.494 .962 24.741-1.003 27.783-3.098 31.023-6.245 32.272-10.009 32.22-12.011 32.193-14.013 32.215-16.175 32.215V35.407C-12.506 35.166-8.836 35.422-5.435 34.584-.411 33.346 2.638 29.649 3.388 24.512 4.167 19.173 2.166 14.877-2.425 11.903-3.152 11.432-3.942 11.055-4.982 10.48-3.325 6.995-1.69 3.556 0 0" fill="#1A1A1A"/>
<path transform="matrix(1,0,0,-1,170.9985,103.07361)" stroke-width="2" stroke-linecap="butt" stroke-miterlimit="10" stroke-linejoin="miter" fill="none" stroke="#1A1A1A" d="M0 0C-.869-.468-1.617-.872-2.574-1.388-4.015 1.533-5.619 4.265-6.725 7.185-7.64 9.603-9.085 10.227-11.479 10.095-14.781 9.913-18.101 10.049-21.561 10.049-21.628 11.107-21.676 11.854-21.749 12.99-17.399 12.99-13.215 12.911-9.036 13.013-5.229 13.106-2.296 14.87-.538 18.28 1.119 21.494 .962 24.741-1.003 27.783-3.098 31.023-6.245 32.272-10.009 32.22-12.011 32.193-14.013 32.215-16.175 32.215V35.407C-12.506 35.166-8.836 35.422-5.435 34.584-.411 33.346 2.638 29.649 3.388 24.512 4.167 19.173 2.166 14.877-2.425 11.903-3.152 11.432-3.942 11.055-4.982 10.48-3.325 6.995-1.69 3.556 0 0Z"/>
<path transform="matrix(1,0,0,-1,195.4712,103.8167)" d="M0 0C-.044 .694-.09 1.415-.15 2.364 5.418 2.927 9.954 5.108 12.864 9.956 14.738 13.078 15.433 16.447 14.858 20.043 13.69 27.345 7.39 32.847 .125 32.949-8.04 33.063-13.733 27.659-15.587 17.864-16.255 17.815-16.978 17.762-17.966 17.69-18.259 21.598-17.057 24.877-15.002 27.867-9.953 35.215-.554 37.771 7.452 34.046 15.346 30.373 19.411 21.682 17.244 13.113 15.276 5.332 7.583-.59 0 0" fill="#1A1A1A"/>
<path transform="matrix(1,0,0,-1,195.4712,103.8167)" stroke-width="2" stroke-linecap="butt" stroke-miterlimit="10" stroke-linejoin="miter" fill="none" stroke="#1A1A1A" d="M0 0C-.044 .694-.09 1.415-.15 2.364 5.418 2.927 9.954 5.108 12.864 9.956 14.738 13.078 15.433 16.447 14.858 20.043 13.69 27.345 7.39 32.847 .125 32.949-8.04 33.063-13.733 27.659-15.587 17.864-16.255 17.815-16.978 17.762-17.966 17.69-18.259 21.598-17.057 24.877-15.002 27.867-9.953 35.215-.554 37.771 7.452 34.046 15.346 30.373 19.411 21.682 17.244 13.113 15.276 5.332 7.583-.59 0 0Z"/>
<path transform="matrix(1,0,0,-1,379.4756,103.74151)" d="M0 0C-.044 .693-.09 1.415-.149 2.364 5.418 2.927 9.954 5.108 12.864 9.956 14.738 13.078 15.434 16.446 14.858 20.043 13.69 27.344 7.391 32.846 .125 32.948-8.04 33.063-13.732 27.659-15.587 17.864-16.255 17.815-16.978 17.762-17.966 17.69-18.259 21.598-17.056 24.876-15.002 27.867-9.952 35.215-.554 37.771 7.452 34.046 15.347 30.373 19.411 21.682 17.244 13.113 15.276 5.332 7.584-.591 0 0" fill="#1A1A1A"/>
<path transform="matrix(1,0,0,-1,379.4756,103.74151)" stroke-width="2" stroke-linecap="butt" stroke-miterlimit="10" stroke-linejoin="miter" fill="none" stroke="#1A1A1A" d="M0 0C-.044 .693-.09 1.415-.149 2.364 5.418 2.927 9.954 5.108 12.864 9.956 14.738 13.078 15.434 16.446 14.858 20.043 13.69 27.344 7.391 32.846 .125 32.948-8.04 33.063-13.732 27.659-15.587 17.864-16.255 17.815-16.978 17.762-17.966 17.69-18.259 21.598-17.056 24.876-15.002 27.867-9.952 35.215-.554 37.771 7.452 34.046 15.347 30.373 19.411 21.682 17.244 13.113 15.276 5.332 7.584-.591 0 0Z"/>
<path transform="matrix(1,0,0,-1,217.3188,103.58681)" d="M0 0V3.173C2.849 3.173 5.638 3.16 8.426 3.176 15.404 3.216 20.251 6.626 22.249 12.882 24.355 19.479 22.224 27.106 16.881 30.61 14.974 31.861 12.491 32.333 10.202 32.864 8.832 33.181 7.329 32.922 5.725 32.922 5.634 33.826 5.561 34.556 5.496 35.193 5.77 35.409 5.895 35.593 6.038 35.609 15.442 36.625 21.713 32.961 24.702 24.718 27.639 16.617 24.975 7.019 18.145 2.733 15.789 1.254 12.793 .492 9.993 .103 6.812-.34 3.521 0 0 0" fill="#1A1A1A"/>
<path transform="matrix(1,0,0,-1,217.3188,103.58681)" stroke-width="2" stroke-linecap="butt" stroke-miterlimit="10" stroke-linejoin="miter" fill="none" stroke="#1A1A1A" d="M0 0V3.173C2.849 3.173 5.638 3.16 8.426 3.176 15.404 3.216 20.251 6.626 22.249 12.882 24.355 19.479 22.224 27.106 16.881 30.61 14.974 31.861 12.491 32.333 10.202 32.864 8.832 33.181 7.329 32.922 5.725 32.922 5.634 33.826 5.561 34.556 5.496 35.193 5.77 35.409 5.895 35.593 6.038 35.609 15.442 36.625 21.713 32.961 24.702 24.718 27.639 16.617 24.975 7.019 18.145 2.733 15.789 1.254 12.793 .492 9.993 .103 6.812-.34 3.521 0 0 0Z"/>
<path transform="matrix(1,0,0,-1,247.2935,68.53111)" d="M0 0H2.892C2.892-3.954 2.89-7.834 2.892-11.714 2.894-14.407 2.859-17.101 2.916-19.792 3.065-26.889 8.891-32.631 15.974-32.708 23.222-32.787 28.862-27.372 29.125-20.055 29.168-18.841 28.965-17.597 29.171-16.418 29.28-15.795 30.023-15.282 30.48-14.719 30.99-15.233 31.885-15.7 31.953-16.266 33.334-27.723 25.825-36.006 14.631-35.475 7.218-35.124 .559-28.649 .082-20.616-.318-13.876 0-7.095 0 0" fill="#1A1A1A"/>
<path transform="matrix(1,0,0,-1,247.2935,68.53111)" stroke-width="2" stroke-linecap="butt" stroke-miterlimit="10" stroke-linejoin="miter" fill="none" stroke="#1A1A1A" d="M0 0H2.892C2.892-3.954 2.89-7.834 2.892-11.714 2.894-14.407 2.859-17.101 2.916-19.792 3.065-26.889 8.891-32.631 15.974-32.708 23.222-32.787 28.862-27.372 29.125-20.055 29.168-18.841 28.965-17.597 29.171-16.418 29.28-15.795 30.023-15.282 30.48-14.719 30.99-15.233 31.885-15.7 31.953-16.266 33.334-27.723 25.825-36.006 14.631-35.475 7.218-35.124 .559-28.649 .082-20.616-.318-13.876 0-7.095 0 0Z"/>
<path transform="matrix(1,0,0,-1,300.9854,68.02231)" d="M0 0C.002-.913 .004-1.645 .006-2.348-9.092-4.334-13.61-8.431-14.8-15.682-15.751-21.471-12.746-27.667-7.468-30.799-1.598-34.283 4.478-33.541 11.085-28.413 11.659-28.901 12.271-29.422 12.871-29.934 8.877-35.41-.156-37.237-7.184-34.117-14.855-30.71-19.124-22.207-17.355-13.852-15.681-5.939-8.292 .054 0 0" fill="#1A1A1A"/>
<path transform="matrix(1,0,0,-1,300.9854,68.02231)" stroke-width="2" stroke-linecap="butt" stroke-miterlimit="10" stroke-linejoin="miter" fill="none" stroke="#1A1A1A" d="M0 0C.002-.913 .004-1.645 .006-2.348-9.092-4.334-13.61-8.431-14.8-15.682-15.751-21.471-12.746-27.667-7.468-30.799-1.598-34.283 4.478-33.541 11.085-28.413 11.659-28.901 12.271-29.422 12.871-29.934 8.877-35.41-.156-37.237-7.184-34.117-14.855-30.71-19.124-22.207-17.355-13.852-15.681-5.939-8.292 .054 0 0Z"/>
<path transform="matrix(1,0,0,-1,331.7441,70.9129)" d="M0 0V-18.95C-.979-19.007-1.729-19.05-2.769-19.111V-.142H-16.001C-16.11 .99-16.191 1.832-16.299 2.938H13.299C13.336 2.145 13.378 1.241 13.436 0Z" fill="#1A1A1A"/>
<path transform="matrix(1,0,0,-1,331.7441,70.9129)" stroke-width="2" stroke-linecap="butt" stroke-miterlimit="10" stroke-linejoin="miter" fill="none" stroke="#1A1A1A" d="M0 0V-18.95C-.979-19.007-1.729-19.05-2.769-19.111V-.142H-16.001C-16.11 .99-16.191 1.832-16.299 2.938H13.299C13.336 2.145 13.378 1.241 13.436 0H0Z"/>
<path transform="matrix(1,0,0,-1,356.6924,103.92811)" d="M0 0C-.87-.048-1.519-.084-2.298-.127-2.365 .74-2.46 1.402-2.461 2.065-2.469 12.571-2.473 23.077-2.448 33.583-2.446 34.577-2.859 36.172-1.185 35.8-.682 35.688-.055 34.422-.05 33.68 .022 22.58 0 11.479 0 0" fill="#1A1A1A"/>
<path transform="matrix(1,0,0,-1,356.6924,103.92811)" stroke-width="2" stroke-linecap="butt" stroke-miterlimit="10" stroke-linejoin="miter" fill="none" stroke="#1A1A1A" d="M0 0C-.87-.048-1.519-.084-2.298-.127-2.365 .74-2.46 1.402-2.461 2.065-2.469 12.571-2.473 23.077-2.448 33.583-2.446 34.577-2.859 36.172-1.185 35.8-.682 35.688-.055 34.422-.05 33.68 .022 22.58 0 11.479 0 0Z"/>
<path transform="matrix(1,0,0,-1,428.6299,98.294307)" d="M0 0V12.519C.904 12.58 1.635 12.629 2.567 12.692V-4.971C.855-5.778-.257-5.096-1.347-3.701-8.407 5.334-15.526 14.323-22.631 23.324-23.151 23.983-23.712 24.611-24.749 25.841-24.749 21.643-24.797 18.089-24.73 14.538-24.694 12.64-25.401 11.99-27.387 12.721V30.292C-25.411 31.122-24.404 30.129-23.368 28.801-16.316 19.761-9.213 10.761-2.123 1.75-1.604 1.089-1.062 .446-.531-.206-.354-.137-.177-.069 0 0" fill="#1A1A1A"/>
<path transform="matrix(1,0,0,-1,428.6299,98.294307)" stroke-width="2" stroke-linecap="butt" stroke-miterlimit="10" stroke-linejoin="miter" fill="none" stroke="#1A1A1A" d="M0 0V12.519C.904 12.58 1.635 12.629 2.567 12.692V-4.971C.855-5.778-.257-5.096-1.347-3.701-8.407 5.334-15.526 14.323-22.631 23.324-23.151 23.983-23.712 24.611-24.749 25.841-24.749 21.643-24.797 18.089-24.73 14.538-24.694 12.64-25.401 11.99-27.387 12.721V30.292C-25.411 31.122-24.404 30.129-23.368 28.801-16.316 19.761-9.213 10.761-2.123 1.75-1.604 1.089-1.062 .446-.531-.206-.354-.137-.177-.069 0 0Z"/>
<path transform="matrix(1,0,0,-1,452.8838,86.85921)" d="M0 0C3.002 2.995 5.916 5.903 8.83 8.81 8.796 8.886 8.762 8.962 8.728 9.038 8.416 9.052 8.104 9.079 7.793 9.079 3.716 9.082-.362 9.1-4.439 9.065-5.217 9.058-5.489 9.246-5.471 10.067-5.417 12.452-5.454 14.839-5.45 17.225-5.449 17.519-5.417 17.812-5.396 18.151H21.822C21.842 17.814 21.875 17.495 21.875 17.176 21.88 14.759 21.908 12.342 21.852 9.927 21.841 9.448 21.619 8.859 21.289 8.521 18.653 5.817 15.977 3.154 13.288 .503 13.017 .235 12.585-.023 12.226-.026 8.299-.064 4.372-.05 .445-.048 .338-.048 .229-.025 0 0" fill="#1A1A1A"/>
<path transform="matrix(1,0,0,-1,479.3486,121.60921)" d="M0 0H14.019V-9.041H-13.206V-5.492C-13.205-3.891-13.237-2.288-13.183-.688-13.169-.288-12.977 .201-12.698 .484-10.011 3.223-7.293 5.932-4.564 8.629-4.332 8.859-3.959 9.075-3.649 9.077 .368 9.104 4.387 9.092 8.405 9.086 8.453 9.086 8.502 9.038 8.628 8.97 5.695 6.044 2.782 3.138-.131 .232-.088 .155-.044 .078 0 0" fill="#1A1A1A"/>
<path transform="matrix(1,0,0,-1,493.4805,98.801609)" d="M0 0H-9.081C-9.217 1.475-9.727 2.83-11.019 3.593-11.838 4.077-12.86 4.43-13.802 4.455-16.174 4.519-17.636 2.993-18.336-.008H-27.323C-27.264 4.457-25.539 8.084-22.049 10.724-17.396 14.242-12.297 14.685-7.161 11.928-2.541 9.447-.246 5.379 0 0" fill="#1A1A1A"/>
<path transform="matrix(1,0,0,-1,447.4395,100.60631)" d="M0 0H9.037C9.594-2.965 11.243-4.525 13.744-4.496 16.155-4.467 17.843-2.807 18.267-.002H27.322C27.196-4.772 25.237-8.52 21.376-11.221 16.897-14.355 10.901-14.463 6.346-11.487 2.243-8.807 .151-4.973 0 0" fill="#1A1A1A"/>
</g>
<use data-text="L" xlink:href="#font_2_49" transform="matrix(20.4685,0,0,-20.4685,235.0664,159.2406)"/>
<use data-text="U" xlink:href="#font_2_58" transform="matrix(20.4685,0,0,-20.4685,247.36798,159.2406)"/>
<use data-text="I" xlink:href="#font_2_46" transform="matrix(20.4685,0,0,-20.4685,263.25154,159.2406)"/>
<use data-text="G" xlink:href="#font_2_44" transform="matrix(20.4685,0,0,-20.4685,269.8219,159.2406)"/>
<use data-text="I" xlink:href="#font_2_46" transform="matrix(20.4685,0,0,-20.4685,284.98908,159.2406)"/>
<use data-text=" " xlink:href="#font_2_3" transform="matrix(20.4685,0,0,-20.4685,291.55946,159.2406)"/>
<use data-text="L" xlink:href="#font_2_49" transform="matrix(20.4685,0,0,-20.4685,306.72663,159.2406)"/>
<use data-text="O" xlink:href="#font_2_52" transform="matrix(20.4685,0,0,-20.4685,319.0282,159.2406)"/>
<use data-text="S" xlink:href="#font_2_56" transform="matrix(20.4685,0,0,-20.4685,334.91175,159.2406)"/>
<use data-text="C" xlink:href="#font_2_40" transform="matrix(20.4685,0,0,-20.4685,349.36253,159.2406)"/>
<use data-text="O" xlink:href="#font_2_52" transform="matrix(20.4685,0,0,-20.4685,364.52967,159.2406)"/>
<use data-text=" " xlink:href="#font_2_3" transform="matrix(20.4685,0,0,-20.4685,380.4132,159.2406)"/>
</g>
</svg>
